<svg xmlns="http://www.w3.org/2000/svg" viewBox="0 0 120 62" role="img" aria-label="180 Graus">
  <defs><clipPath id="d"><path d="M2 60 A 58 58 0 0 1 118 60 Z"/></clipPath></defs>
  <g clip-path="url(#d)">
  <path d="M60 60 Q 27.15 58.81 2.00 60.00 A 58 58 0 0 1 5.50 40.16 Z" fill="#E2231A"/>
  <path d="M60 60 Q 29.54 47.65 5.50 40.16 A 58 58 0 0 1 15.57 22.72 Z" fill="#F39200"/>
  <path d="M60 60 Q 35.60 37.97 15.57 22.72 A 58 58 0 0 1 31.00 9.77 Z" fill="#E2231A"/>
  <path d="M60 60 Q 44.61 30.96 31.00 9.77 A 58 58 0 0 1 49.93 2.88 Z" fill="#FFD400"/>
  <path d="M60 60 Q 55.47 27.44 49.93 2.88 A 58 58 0 0 1 70.07 2.88 Z" fill="#FFD400"/>
  <path d="M60 60 Q 66.88 27.86 70.07 2.88 A 58 58 0 0 1 89.00 9.77 Z" fill="#E2231A"/>
  <path d="M60 60 Q 77.46 32.15 89.00 9.77 A 58 58 0 0 1 104.43 22.72 Z" fill="#F39200"/>
  <path d="M60 60 Q 85.93 39.80 104.43 22.72 A 58 58 0 0 1 114.50 40.16 Z" fill="#E2231A"/>
  <path d="M60 60 Q 91.28 49.88 114.50 40.16 A 58 58 0 0 1 118.00 60.00 Z" fill="#F39200"/>
  </g>
</svg>