<svg xmlns="http://www.w3.org/2000/svg" viewBox="0 0 64 64" role="img" aria-label="180 Graus">
  <defs>
    <linearGradient id="bg" x1="0" y1="0" x2="0" y2="1">
      <stop offset="0" stop-color="#2E86E6"/>
      <stop offset="1" stop-color="#1657C4"/>
    </linearGradient>
    <clipPath id="dome"><path d="M7 41 A25 25 0 0 1 57 41 Z"/></clipPath>
  </defs>
  <rect width="64" height="64" rx="15" fill="url(#bg)"/>
  <g clip-path="url(#dome)">
  <path d="M32 41 L7.00 41.00 A25 25 0 0 1 8.51 32.45 Z" fill="#E5392B"/>
  <path d="M32 41 L8.51 32.45 A25 25 0 0 1 12.85 24.93 Z" fill="#F26C1F"/>
  <path d="M32 41 L12.85 24.93 A25 25 0 0 1 19.50 19.35 Z" fill="#F8A81C"/>
  <path d="M32 41 L19.50 19.35 A25 25 0 0 1 27.66 16.38 Z" fill="#F26C1F"/>
  <path d="M32 41 L27.66 16.38 A25 25 0 0 1 36.34 16.38 Z" fill="#E5392B"/>
  <path d="M32 41 L36.34 16.38 A25 25 0 0 1 44.50 19.35 Z" fill="#F8A81C"/>
  <path d="M32 41 L44.50 19.35 A25 25 0 0 1 51.15 24.93 Z" fill="#F26C1F"/>
  <path d="M32 41 L51.15 24.93 A25 25 0 0 1 55.49 32.45 Z" fill="#E5392B"/>
  <path d="M32 41 L55.49 32.45 A25 25 0 0 1 57.00 41.00 Z" fill="#F8A81C"/>
  </g>
  <rect x="7" y="40.00" width="50" height="2.4" rx="1.2" fill="#fff" opacity="0.92"/>
  <text x="32" y="59" text-anchor="middle" font-family="Arial, Helvetica, sans-serif" font-weight="800" font-size="15" fill="#fff" letter-spacing="-0.5">180</text>
</svg>